<?xml version="1.0" encoding="utf-8"?>
<svg version="1.1" id="Layer_1" xmlns="http://www.w3.org/2000/svg" xmlns:xlink="http://www.w3.org/1999/xlink" x="0px" y="0px"
	 viewBox="0 0 2615.082 1181.895" enable-background="new 0 0 2615.082 1181.895" xml:space="preserve">
<path d="M930.952,379.14c0.02,0.09,0.07,0.25,0.14,0.47c0.03,0.1,0.05,0.19,0.09,0.29c-0.13-0.47-0.21-0.74-0.25-0.86
	C930.942,379.07,930.952,379.11,930.952,379.14z"/>
<path d="M2544.322,1094.3c-0.35-13.55-0.2-527.88-0.19-528.88c-58.706-0.447-244.62,0.17-244.62,0.17
	c0,8.98,0.35,269.03-0.14,278.09c-12.1,0.25-154.82,0.09-158.85,0.08c-2.94-202.99-2.49-189.55-3.07-195.27
	c-10.61-0.15-21.24,0-31.85-0.01c-0.15-8.39-4.51-246.66-4.54-249.33c-10.38-0.01-20.78,0.07-31.16,0.06
	c-0.2-5.56-8.91-251.12-9.8-260.06c-11.26-0.44-22.52-0.06-33.78-0.26l-0.38-0.56c-0.77-12.81,0.36-26.26-0.3-69.7
	c-3.74,0.05-7.47-0.04-11.18-0.27c-0.69-8.56-0.45-38.64-2.57-47.85c-6.23-0.34-45.78-0.44-52.48,0.09
	c-0.05,11.48-0.93,34.21-0.6,45.29c-0.42-0.66-0.8-1.32-1.16-1.99c-0.04,1.51-0.06,3.02-0.06,4.53c-4.35,0.21-8.71,0.23-13.04,0.16
	c0,1.05-0.03,64.95-0.12,69.71c-11.25,0.15-22.5-0.34-33.74,0.11c-0.67,9.592-11.996,260.267-12.05,261.28
	c-9.12,0.23-18.25,0.02-27.37,0.18c-0.02,1.01-4.33,242.17-4.36,248.89c-8.2,0.22-16.39-0.05-24.58,0.15
	c-0.16,18.54-2.43,173.41-2.74,196.31c-6.91-0.02-13.82,0-20.73,0c-0.36-5.32,0.19-268.22-0.24-280.02
	c-29.37,0.23-58.75,0.05-88.12,0.09c0.06-11.32-0.14-22.65,0.13-33.98c-3.51,0.03-7.02-0.03-10.51,0.02
	c0.12,11.32,0.01,22.63,0.06,33.95c-4.68,0.05-9.35,0.03-14.02,0.03c-0.05-6.51-0.05-33.15-0.05-33.92
	c-17.46-0.13-34.93-0.06-52.39-0.04c-0.04,5.85,0.03,25.6-0.02,33.94c-81.76,0.09-76.44-0.26-79.24,0.57
	c0.19,14.23,0.18,535.23,0,544.02c-5.18,0.17-10.4,0.37-15.55-0.27c-0.12-3.72-0.12-726.69-0.29-735.93
	c-18.27-0.22-36.54-0.04-54.81-0.08c-0.25-21.3-0.07-42.6-0.08-63.89c-69.62-0.19-139.24,0.19-208.84-0.2
	c0.08,21.35,0.1,42.72,0.04,64.09c-13.76,0.073-44.725-0.141-51.66,0.14c0,0,0.34,277.2-0.08,286.82c-2.41,0.1-4.8,0.04-7.19-0.02
	c0.01-6.34,0.05-12.68-0.01-19.01c-12.02,0.02-24.05,0-36.07,0.01c-0.06,6.33-0.03,12.68-0.02,19.01c-3.16,0.07-6.32,0.07-9.48,0.05
	c-0.01-6.35,0.04-12.7-0.02-19.04c-2.45-0.02-4.87-0.02-7.3,0c-0.05,6.34,0.02,12.68-0.05,19.02c-4.58,0.04-9.17,0.05-13.74,0
	c-0.13-6.81,0.1-13.63-0.15-20.44c-0.69,0.05-2.05,0.16-2.73,0.22c0.04,6.74,0.02,13.48,0,20.23c-10.77,0.09-21.53-0.06-32.29,0.06
	c-0.2,4.27-0.09-15.63-0.12,272.87c-29.16-0.03-58.32-0.04-87.48,0.01c-0.07,55.93-0.04,111.85-0.06,167.79
	c-1.58-0.03-3.15-0.02-4.71-0.05c-0.49-3.91-8.69-679.88-8.68-682.03c30.41-12.8,34.93-27.34,40-38.44
	c0.07-0.23,0.13-0.56,0.18-0.95c-0.01,0.16-0.02,0.33-0.04,0.49c5.02-23.99-9.53-51.99-53.24-62.78
	c-6.73-48.93,0.72-19.51-14.3-108.46c-1.651-8.383-2.803-12.502,0.571-17.11c1.219-1.665,2.325-2.793,1.585-5.027
	c-2.941-8.875-12.767-4.011-11.715,1.807c0.95,3.63,4.08,6.29,4.62,10.09c-0.37,2.53-0.74,3.68-1.43,7.55
	c-9.6,49.87-12.17,92.98-14.81,111.17c-51.459,11.398-53.87,48.14-53.87,48.14c-1.656,9.025,0.55,13.23,0.55,14.23
	c5.794,18.116,20.634,33.485,45.32,40.9c-0.25,16.23-13.28,678.15-13.3,679.16c-3.18-0.03-13.36-0.05-17.01-0.45
	c-0.01-100.1,0.04-200.2-0.04-300.31c-7.48,0.03-14.96,0.08-22.43-0.01c-0.06-8.86,0.1-17.71-0.09-26.55
	c-12.03-0.04-24.07,0.04-36.11,0.09c0.04,8.82,0.06,17.64,0,26.46c-14.16,0.06-28.32,0.05-42.48,0.01
	c-0.02-8.85,0.04-17.7-0.04-26.56c-12.05,0.04-24.09-0.07-36.13,0.01c0,1-0.04,24.11,0.02,26.54c-6.74,0.09-13.47,0.02-20.21,0.04
	c-0.07,99.28,0.03,198.57-0.06,297.86c-3.2,0.18-14.6-0.19-21.32-0.23c-0.1-6.03-0.06-752.04-0.08-760.14
	c-11.45-0.4-48.57-0.25-49.12-0.28c-0.38-14.95,0.36-29.93-0.36-44.88c-9.76-0.06-19.52,0.2-29.28-0.14c-0.03-13,0.14-26-0.05-39
	c-5.62,0.47-11.26,0.27-16.88,0.19c0.08-9.8-0.52-19.64,0.35-29.41c-4.55,0.32-9.11,0.18-13.66,0.13
	c-0.24-5.95-0.15-11.9-0.08-17.85c-12.56-0.16-25.12-0.13-37.68,0c-0.32,5.94-0.08,11.87-0.18,17.82c-4.5,0.07-9.01,0.22-13.51-0.14
	c0.29,9.86,0.24,19.75,0.05,29.61c-5.22,0.94-10.52,0.55-15.79,0.78c-1.29,14.8,0.8,31.4-0.99,38
	c-9.715,0.03-19.46,0.203-29.174-0.139c-0.225,0.222-0.341,0.337-0.566,0.559c0.34,14.84,0.15,29.68,0.11,44.52
	c-53.058-0.131-49.65,0.37-49.65,0.37c-0.12,17.01,0.51,384.46-0.06,406.87l0.58,0.04c-0.02,105.18-0.03,189.53-0.03,189.91
	c0,0-241.87,0.08-241.89,0.08c-0.02,51.72-0.03,103.44-0.03,155.15c-9.82,0-25.15-0.54-38.38-0.46c0,0-0.17-289.23-0.17-289.24
	c-52.52,0.06-105.02-0.02-157.53,0.04c0,1,0.05,279.08-0.03,286.51c-15.23-0.15-30.46-0.46-45.69-0.65v76.5h2560v-68.12
	C2573.132,1093.81,2558.722,1093.97,2544.322,1094.3z"/>
</svg>
